<svg xmlns="http://www.w3.org/2000/svg" version="1.1" xmlns:xlink="http://www.w3.org/1999/xlink" xmlns:svgjs="http://svgjs.dev/svgjs" width="128" height="128" viewBox="0 0 128 128"><g transform="matrix(0.8046875,0,0,0.8046875,12.221578124999994,23.534248601132795)"><svg viewBox="0 0 96 75" data-background-color="#000000" preserveAspectRatio="xMidYMid meet" height="100" width="128" xmlns="http://www.w3.org/2000/svg" xmlns:xlink="http://www.w3.org/1999/xlink"><g id="tight-bounds" transform="matrix(1,0,0,1,0.25950000000000273,0.21565178923545147)"><svg viewBox="0 0 95.481 74.5686964215291" height="74.5686964215291" width="95.481"><g><svg viewBox="0 0 95.481 74.5686964215291" height="74.5686964215291" width="95.481"><g><svg viewBox="0 0 95.481 74.5686964215291" height="74.5686964215291" width="95.481"><g id="textblocktransform"><svg viewBox="0 0 95.481 74.5686964215291" height="74.5686964215291" width="95.481" id="textblock"><g><svg viewBox="0 0 95.481 74.5686964215291" height="74.5686964215291" width="95.481"><g><svg viewBox="0 0 95.481 74.5686964215291" height="74.5686964215291" width="95.481"><g><svg xmlns="http://www.w3.org/2000/svg" xmlns:xlink="http://www.w3.org/1999/xlink" version="1.1" x="0" y="0" viewBox="10.444203955093279 19.1 79.15579604490671 61.8190480334006" style="enable-background:new 0 0 100 100;" xml:space="preserve" height="74.5686964215291" width="95.481" class="icon-icon-0" data-fill-palette-color="accent" id="icon-0"></svg></g></svg></g></svg></g></svg></g></svg></g><g></g></svg></g><defs></defs><mask id="d0a0d5fc-8d5a-48b2-a147-cf7c753cb3f6"><g id="SvgjsG2835"><svg viewBox="0 0 95.481 74.5686964215291" height="74.5686964215291" width="95.481"><g><svg viewBox="0 0 95.481 74.5686964215291" height="74.5686964215291" width="95.481"><g><svg viewBox="0 0 95.481 74.5686964215291" height="74.5686964215291" width="95.481"><g id="SvgjsG2834"><svg viewBox="0 0 95.481 74.5686964215291" height="74.5686964215291" width="95.481" id="SvgjsSvg2833"><g><svg viewBox="0 0 95.481 74.5686964215291" height="74.5686964215291" width="95.481"><g><svg viewBox="0 0 95.481 74.5686964215291" height="74.5686964215291" width="95.481"><g><svg xmlns="http://www.w3.org/2000/svg" xmlns:xlink="http://www.w3.org/1999/xlink" version="1.1" x="0" y="0" viewBox="10.444203955093279 19.1 79.15579604490671 61.8190480334006" style="enable-background:new 0 0 100 100;" xml:space="preserve" height="74.5686964215291" width="95.481" class="icon-icon-0" data-fill-palette-color="accent" id="SvgjsSvg2832"><g fill="white"><path d="M53.4 74.4C66.8 72.4 78.2 61.6 81.8 56.6 73 69.9 63.4 75.6 55.5 77.5 67 83.7 82.8 85.5 89.6 46.7 82.7 55 53.3 47 53.4 74.4" fill="white"></path><path d="M61 55C61 40.6 45.7 28.2 47 19.1 36.1 33.2 31.5 43.8 30.7 51.7 29.7 61.4 34.5 67.1 40.8 70.7 42.9 71.9 45.2 72.9 47.5 73.7 42.8 65.3 40 52.3 44.6 33.9 43 41 42.8 59.7 51.8 72.9 51.9 63.2 55.7 58.1 61 55" fill="white"></path><path d="M29.1 52.3C22 47.6 13.3 45 11.2 40.1 6.8 79.3 22.5 81.9 35.3 79.2 28.3 75.2 20.6 67 15.9 51.8 17.9 57.6 25.9 71.2 38.2 76.8 38.8 74.8 39.1 73 39.3 71.3 32.9 67.7 28.2 62 29.1 52.3" fill="white"></path></g></svg></g></svg></g></svg></g></svg></g></svg></g><g></g></svg></g><defs><mask></mask></defs></svg><rect width="95.481" height="74.5686964215291" fill="black" stroke="none" visibility="hidden"></rect></g></mask><linearGradient x1="0" x2="1" y1="0.578" y2="0.595" id="30f09dcf-6385-4324-bfc7-2c5bfd7f70a0"><stop stop-color="#dede50" offset="0"></stop><stop stop-color="#559c49" offset="1"></stop></linearGradient><rect width="95.481" height="74.5686964215291" fill="#ffffff" mask="url(#d0a0d5fc-8d5a-48b2-a147-cf7c753cb3f6)" data-fill-palette-color="accent"></rect></svg><rect width="95.481" height="74.5686964215291" fill="none" stroke="none" visibility="hidden"></rect></g></svg></g></svg>