<svg xmlns="http://www.w3.org/2000/svg" version="1.1" xmlns:xlink="http://www.w3.org/1999/xlink" xmlns:svgjs="http://svgjs.dev/svgjs" width="2000" height="2156" viewBox="0 0 2000 2156"><g transform="matrix(1,0,0,1,-3.465425982105671,-3.47741935483873)"><svg viewBox="0 0 230 248" data-background-color="#000000" preserveAspectRatio="xMidYMid meet" height="2156" width="2000" xmlns="http://www.w3.org/2000/svg" xmlns:xlink="http://www.w3.org/1999/xlink"><g id="tight-bounds" transform="matrix(1,0,0,1,0.3985239879421556,0.4000000000000057)"><svg viewBox="0 0 229.20295202411572 247.2" height="247.2" width="229.20295202411572"><g><svg viewBox="0 0 395.52 426.57628593593677" height="247.2" width="229.20295202411572"><g transform="matrix(1,0,0,1,0,312.03341625625274)"><svg viewBox="0 0 395.52 114.54286967968406" height="114.54286967968406" width="395.52"><g id="textblocktransform"><svg viewBox="0 0 395.52 114.54286967968406" height="114.54286967968406" width="395.52" id="textblock"><g><svg viewBox="0 0 395.52 114.54286967968406" height="114.54286967968406" width="395.52"><g transform="matrix(1,0,0,1,0,0)"><svg width="395.52" viewBox="2.1499999999999995 -32.35 113.94 33" height="114.54286967968406" data-palette-color="url(#1f605dff-abbe-4b68-ba39-4fb058949ef1)"></svg></g></svg></g></svg></g></svg></g><g transform="matrix(1,0,0,1,75.54432,0)"><svg viewBox="0 0 244.43135999999998 244.43135999999998" height="244.43135999999998" width="244.43135999999998"><g><svg viewBox="0 0 244.43135999999998 244.43135999999998" height="244.43135999999998" width="244.43135999999998"><g transform="matrix(1,0,0,1,64.60265593644992,77.22109362866834)"><svg viewBox="0 0 115.22604812710014 89.98917274266329" height="89.98917274266329" width="115.22604812710014"><g><svg xmlns="http://www.w3.org/2000/svg" xmlns:xlink="http://www.w3.org/1999/xlink" version="1.1" x="0" y="0" viewBox="10.444203955093279 19.1 79.15579604490671 61.8190480334006" style="enable-background:new 0 0 100 100;" xml:space="preserve" height="89.98917274266329" width="115.22604812710014" class="icon-dxe-0" data-fill-palette-color="accent" id="dxe-0"></svg></g></svg></g><g id="text-0"></g><g id="text-1"></g></svg></g></svg></g><g></g></svg></g><defs></defs><mask id="355d38c7-e829-4d42-bb9a-2e64b2fc5b34"><g id="SvgjsG2030"><svg viewBox="0 0 229.20295202411572 247.2" height="247.2" width="229.20295202411572"><g><svg viewBox="0 0 395.52 426.57628593593677" height="247.2" width="229.20295202411572"><g transform="matrix(1,0,0,1,0,312.03341625625274)"><svg viewBox="0 0 395.52 114.54286967968406" height="114.54286967968406" width="395.52"><g id="SvgjsG2029"><svg viewBox="0 0 395.52 114.54286967968406" height="114.54286967968406" width="395.52" id="SvgjsSvg2028"><g><svg viewBox="0 0 395.52 114.54286967968406" height="114.54286967968406" width="395.52"><g transform="matrix(1,0,0,1,0,0)"><svg width="395.52" viewBox="2.1499999999999995 -32.35 113.94 33" height="114.54286967968406" data-palette-color="url(#1f605dff-abbe-4b68-ba39-4fb058949ef1)"><path d="M10.2 0.65L10.2 0.65Q8.35 0.65 6.8 0.3 5.25-0.05 4.25-1L4.25-1Q3.5-1.7 3.25-2.58 3-3.45 3-4.5L3-4.5Q3-6.2 3.3-7.9L3.3-7.9Q3.75-10.85 4.1-14.25 4.45-17.65 4.45-20.55L4.45-20.55Q4.45-21.45 4.38-22.6 4.3-23.75 4.15-24.75L4.15-24.75Q3.8-24.6 3.48-24.48 3.15-24.35 2.9-24.35L2.9-24.35Q2.45-24.35 2.3-24.8 2.15-25.25 2.15-25.8L2.15-25.8Q2.15-27.25 2.83-28.28 3.5-29.3 5.05-30.1L5.05-30.1Q6.7-31 9.38-31.68 12.05-32.35 14.8-32.35L14.8-32.35Q21.05-32.35 24.63-28.68 28.2-25 28.2-18.25L28.2-18.25Q28.2-14.4 27.03-10.98 25.85-7.55 23.55-4.93 21.25-2.3 17.9-0.83 14.55 0.65 10.2 0.65ZM11.8-4.95L11.8-4.95Q14.05-4.95 16.3-5.65 18.55-6.35 20.38-7.75 22.2-9.15 23.3-11.33 24.4-13.5 24.4-16.55L24.4-16.55Q24.4-20 23.05-22.25 21.7-24.5 19.45-25.6 17.2-26.7 14.45-26.7L14.45-26.7Q12.95-26.7 11.48-26.45 10-26.2 9.15-25.95L9.15-25.95Q9.1-23.65 8.88-21.48 8.65-19.3 8.35-17.25L8.35-17.25Q8.05-15.1 7.88-13.05 7.7-11 7.7-9L7.7-9Q7.7-6.5 8.72-5.73 9.75-4.95 11.8-4.95ZM39.15 0.65L39.15 0.65Q35.35 0.65 33.22-1.53 31.1-3.7 31.1-7.6L31.1-7.6Q31.1-11.15 32.65-14.05 34.2-16.95 36.82-18.68 39.45-20.4 42.6-20.4L42.6-20.4Q45.6-20.4 47.4-18.93 49.2-17.45 49.2-15L49.2-15Q49.2-13.05 48-11.4 46.8-9.75 44.8-8.78 42.8-7.8 40.35-7.8L40.35-7.8Q37.35-7.8 35.45-9.15L35.45-9.15Q35.5-6.85 37.02-5.45 38.55-4.05 40.95-4.05L40.95-4.05Q42.4-4.05 43.92-4.58 45.45-5.1 46.55-6L46.55-6Q47.25-6.6 47.85-6.6L47.85-6.6Q48.35-6.6 48.67-6.28 49-5.95 49-5.45L49-5.45Q49-4.35 47.1-2.55L47.1-2.55Q43.75 0.65 39.15 0.65ZM39.9-11.1L39.9-11.1Q41.7-11.1 42.9-11.85 44.1-12.6 44.1-13.75L44.1-13.75Q44.1-14.7 43.3-15.23 42.5-15.75 41.1-15.75L41.1-15.75Q39.25-15.75 37.87-14.78 36.5-13.8 35.9-12.05L35.9-12.05Q36.6-11.6 37.7-11.35 38.8-11.1 39.9-11.1ZM62.7 0.5L62.7 0.5Q62.1 0.5 61.47 0.3 60.85 0.1 60.45-0.65 60.05-1.4 60.05-2.95L60.05-2.95Q60.05-4.05 60.22-5.65 60.4-7.25 60.7-9.1L60.7-9.1Q61.1-11.6 61.37-14.38 61.65-17.15 61.65-20.05L61.65-20.05Q61.65-22.4 61.42-24.13 61.2-25.85 60.85-26.8L60.85-26.8Q58.95-26.75 57.25-26.55 55.55-26.35 53.8-25.9L53.8-25.9Q53.35-25.85 53.02-25.78 52.7-25.7 52.4-25.7L52.4-25.7Q51.95-25.7 51.75-25.88 51.55-26.05 51.55-26.75L51.55-26.75Q51.55-27.6 51.8-28.53 52.05-29.45 52.55-30.1L52.55-30.1Q53.05-30.8 53.72-31.13 54.4-31.45 55.2-31.55L55.2-31.55Q56.45-31.7 58.4-31.83 60.35-31.95 62.67-32.05 65-32.15 67.25-32.15L67.25-32.15Q70.9-32.15 72.47-32.1 74.05-32.05 74.59-31.95L74.59-31.95Q75.3-31.85 75.57-31.53 75.84-31.2 75.84-30.5L75.84-30.5Q75.84-29.15 74.65-27.8L74.65-27.8Q74.15-27.2 73.59-26.88 73.05-26.55 72.15-26.6L72.15-26.6Q71.34-26.7 69.8-26.75 68.25-26.8 66.34-26.8L66.34-26.8Q66.3-25.05 66.07-22.73 65.84-20.4 65.55-18.05L65.55-18.05Q65.25-15.75 65.05-13.45 64.84-11.15 64.84-9.25L64.84-9.25Q64.84-7.5 65.17-6.18 65.5-4.85 66.5-3.9L66.5-3.9Q67.2-3.2 67.2-2.4L67.2-2.4Q67.2-1.3 65.95-0.4 64.7 0.5 62.7 0.5ZM80.09 0.65L80.09 0.65Q76.29 0.65 74.17-1.53 72.04-3.7 72.04-7.6L72.04-7.6Q72.04-11.15 73.59-14.05 75.14-16.95 77.77-18.68 80.39-20.4 83.54-20.4L83.54-20.4Q86.54-20.4 88.34-18.93 90.14-17.45 90.14-15L90.14-15Q90.14-13.05 88.94-11.4 87.74-9.75 85.74-8.78 83.74-7.8 81.29-7.8L81.29-7.8Q78.29-7.8 76.39-9.15L76.39-9.15Q76.44-6.85 77.97-5.45 79.49-4.05 81.89-4.05L81.89-4.05Q83.34-4.05 84.87-4.58 86.39-5.1 87.49-6L87.49-6Q88.19-6.6 88.79-6.6L88.79-6.6Q89.29-6.6 89.62-6.28 89.94-5.95 89.94-5.45L89.94-5.45Q89.94-4.35 88.04-2.55L88.04-2.55Q84.69 0.65 80.09 0.65ZM80.84-11.1L80.84-11.1Q82.64-11.1 83.84-11.85 85.04-12.6 85.04-13.75L85.04-13.75Q85.04-14.7 84.24-15.23 83.44-15.75 82.04-15.75L82.04-15.75Q80.19-15.75 78.82-14.78 77.44-13.8 76.84-12.05L76.84-12.05Q77.54-11.6 78.64-11.35 79.74-11.1 80.84-11.1ZM100.19 0.65L100.19 0.65Q97.19 0.65 95.37-1.23 93.54-3.1 93.54-6.6L93.54-6.6Q93.54-9.1 94.52-11.58 95.49-14.05 97.34-16.05 99.19-18.05 101.79-19.25 104.39-20.45 107.64-20.45L107.64-20.45Q110.64-20.45 112.77-19.43 114.89-18.4 114.89-16.65L114.89-16.65Q114.89-16.2 114.79-15.48 114.69-14.75 114.54-14.3L114.54-14.3Q114.39-13.9 114.12-13.58 113.84-13.25 113.39-13.25L113.39-13.25Q113.19-13.25 112.64-13.4L112.64-13.4Q112.44-12.35 112.34-11.35 112.24-10.35 112.24-9.35L112.24-9.35Q112.24-7.45 112.82-5.98 113.39-4.5 115.09-4.15L115.09-4.15Q115.54-4.05 115.82-3.85 116.09-3.65 116.09-3L116.09-3Q116.09-2.45 115.82-1.6 115.54-0.75 114.77-0.08 113.99 0.6 112.54 0.6L112.54 0.6Q110.59 0.6 109.54-0.83 108.49-2.25 108.49-4.9L108.49-4.9Q107.14-2.45 105.07-0.9 102.99 0.65 100.19 0.65ZM101.79-4.55L101.79-4.55Q103.79-4.55 105.32-5.8 106.84-7.05 107.69-8.95L107.69-8.95Q108.24-10.15 108.54-11.58 108.84-13 108.94-14.4L108.94-14.4Q108.09-14.8 106.99-15.05 105.89-15.3 104.69-15.3L104.69-15.3Q101.64-15.3 99.67-13.5 97.69-11.7 97.69-9L97.69-9Q97.69-7 98.79-5.78 99.89-4.55 101.79-4.55Z" opacity="1" transform="matrix(1,0,0,1,0,0)" fill="white" class="wordmark-text-0" id="SvgjsPath2027"></path></svg></g></svg></g></svg></g></svg></g><g transform="matrix(1,0,0,1,75.54432,0)"><svg viewBox="0 0 244.43135999999998 244.43135999999998" height="244.43135999999998" width="244.43135999999998"><g><svg viewBox="0 0 244.43135999999998 244.43135999999998" height="244.43135999999998" width="244.43135999999998"><g transform="matrix(1,0,0,1,64.60265593644992,77.22109362866834)"><svg viewBox="0 0 115.22604812710014 89.98917274266329" height="89.98917274266329" width="115.22604812710014"><g><svg xmlns="http://www.w3.org/2000/svg" xmlns:xlink="http://www.w3.org/1999/xlink" version="1.1" x="0" y="0" viewBox="10.444203955093279 19.1 79.15579604490671 61.8190480334006" style="enable-background:new 0 0 100 100;" xml:space="preserve" height="89.98917274266329" width="115.22604812710014" class="icon-dxe-0" data-fill-palette-color="accent" id="SvgjsSvg2026"><g fill="black"><path d="M53.4 74.4C66.8 72.4 78.2 61.6 81.8 56.6 73 69.9 63.4 75.6 55.5 77.5 67 83.7 82.8 85.5 89.6 46.7 82.7 55 53.3 47 53.4 74.4" fill="black"></path><path d="M61 55C61 40.6 45.7 28.2 47 19.1 36.1 33.2 31.5 43.8 30.7 51.7 29.7 61.4 34.5 67.1 40.8 70.7 42.9 71.9 45.2 72.9 47.5 73.7 42.8 65.3 40 52.3 44.6 33.9 43 41 42.8 59.7 51.8 72.9 51.9 63.2 55.7 58.1 61 55" fill="black"></path><path d="M29.1 52.3C22 47.6 13.3 45 11.2 40.1 6.8 79.3 22.5 81.9 35.3 79.2 28.3 75.2 20.6 67 15.9 51.8 17.9 57.6 25.9 71.2 38.2 76.8 38.8 74.8 39.1 73 39.3 71.3 32.9 67.7 28.2 62 29.1 52.3" fill="black"></path></g></svg></g></svg></g><g id="SvgjsG2025"><path d="M34.465 94.723v0c-0.451 1.146-0.973 2.156-1.568 3.032-0.595 0.875-1.308 1.506-2.14 1.894v0c-0.614 0.288-1.221 0.403-1.82 0.346-0.606-0.06-1.231-0.216-1.876-0.469v0c-1.053-0.414-2.07-0.921-3.049-1.522v0c-1.714-0.989-3.582-2.006-5.603-3.051-2.021-1.045-3.927-1.92-5.717-2.625v0c-0.558-0.219-1.201-0.447-1.93-0.684-0.732-0.231-1.426-0.421-2.082-0.572v0c0.008 0.253 0.013 0.495 0.015 0.725-0.004 0.227-0.036 0.419-0.096 0.573v0c-0.11 0.279-0.322 0.41-0.638 0.394-0.309-0.014-0.634-0.088-0.975-0.223v0c-0.898-0.353-1.585-0.863-2.059-1.529-0.466-0.67-0.759-1.579-0.88-2.728v0c-0.155-1.241-0.115-2.771 0.12-4.588 0.236-1.817 0.688-3.578 1.359-5.281v0c1.52-3.865 3.852-6.457 6.995-7.774 3.143-1.317 6.803-1.155 10.978 0.487v0c2.379 0.936 4.485 2.183 6.319 3.741 1.831 1.564 3.279 3.375 4.344 5.432 1.063 2.063 1.644 4.313 1.745 6.749 0.097 2.427-0.384 4.985-1.442 7.673zM29.852 91.203v0c0.548-1.394 0.88-2.873 0.995-4.438 0.112-1.558-0.042-3.075-0.464-4.549-0.424-1.469-1.174-2.808-2.25-4.018-1.076-1.21-2.559-2.187-4.449-2.93v0c-2.131-0.838-4.058-1.113-5.78-0.826-1.723 0.288-3.196 0.996-4.42 2.125-1.227 1.12-2.176 2.531-2.846 4.234v0c-0.365 0.929-0.65 1.88-0.853 2.852-0.203 0.972-0.331 1.751-0.383 2.338v0c1.406 0.589 2.757 1.22 4.051 1.894 1.291 0.665 2.531 1.339 3.722 2.022v0c1.259 0.71 2.501 1.37 3.727 1.981 1.228 0.605 2.459 1.15 3.692 1.635v0c1.549 0.609 2.686 0.692 3.411 0.247 0.734-0.448 1.35-1.304 1.847-2.567z" fill="black"></path><path d="M71.078 47.726v0c-2.105 1.402-4.145 1.894-6.121 1.474-1.975-0.42-3.683-1.71-5.122-3.871v0c-1.306-1.961-2.065-4.031-2.277-6.21-0.217-2.175 0.083-4.222 0.899-6.142 0.822-1.923 2.103-3.465 3.843-4.623v0c1.662-1.107 3.26-1.584 4.794-1.431 1.54 0.15 2.762 0.904 3.666 2.262v0c0.72 1.08 1.052 2.299 0.996 3.655-0.054 1.348-0.454 2.662-1.2 3.944-0.75 1.276-1.804 2.365-3.161 3.269v0c-1.656 1.103-3.26 1.632-4.811 1.585v0c0.877 1.256 1.994 1.991 3.353 2.206 1.364 0.211 2.708-0.125 4.032-1.007v0c0.803-0.535 1.528-1.23 2.175-2.084 0.656-0.853 1.122-1.731 1.399-2.636v0c0.161-0.587 0.407-0.991 0.74-1.213v0c0.277-0.185 0.566-0.249 0.867-0.194 0.299 0.065 0.541 0.236 0.725 0.513v0c0.406 0.609 0.416 1.759 0.03 3.448v0c-0.675 3.009-2.284 5.361-4.827 7.055zM65.208 37.563v0c0.992-0.661 1.681-1.42 2.069-2.279 0.388-0.858 0.37-1.606-0.055-2.243v0c-0.351-0.526-0.843-0.786-1.478-0.779-0.639 0.002-1.346 0.261-2.122 0.778v0c-1.019 0.679-1.73 1.545-2.133 2.597-0.401 1.043-0.445 2.16-0.131 3.351v0c0.554-0.009 1.182-0.147 1.883-0.415 0.702-0.267 1.357-0.604 1.967-1.01z" fill="black"></path><path d="M123.504 32.491v0c-0.399-0.006-0.804-0.079-1.215-0.218-0.411-0.139-0.745-0.461-1.004-0.964-0.259-0.503-0.38-1.271-0.365-2.303v0c0.011-0.726 0.081-1.62 0.211-2.683 0.136-1.063 0.313-2.209 0.531-3.437v0c0.291-1.653 0.541-3.4 0.749-5.241 0.214-1.848 0.336-3.733 0.365-5.657v0c0.024-1.564-0.032-2.92-0.168-4.067-0.129-1.147-0.305-2.038-0.529-2.674v0c-1.265 0.014-2.464 0.079-3.598 0.195-1.134 0.116-2.282 0.315-3.445 0.597v0c-0.3 0.029-0.56 0.065-0.78 0.108-0.214 0.05-0.421 0.074-0.62 0.07v0c-0.3-0.005-0.515-0.068-0.647-0.189-0.131-0.115-0.194-0.406-0.186-0.872v0c0.009-0.566 0.101-1.154 0.276-1.763 0.176-0.616 0.433-1.139 0.773-1.566v0c0.34-0.461 0.734-0.794 1.183-1.001 0.456-0.213 0.947-0.348 1.475-0.407v0c0.834-0.087 1.9-0.161 3.198-0.221 1.299-0.067 2.721-0.119 4.267-0.155 1.545-0.043 3.067-0.053 4.564-0.031v0c2.423 0.037 4.156 0.08 5.201 0.128 1.051 0.049 1.759 0.106 2.125 0.172v0c0.465 0.074 0.786 0.222 0.961 0.444 0.183 0.216 0.271 0.557 0.265 1.023v0c-0.014 0.899-0.427 1.791-1.239 2.677v0c-0.339 0.394-0.693 0.695-1.062 0.903-0.369 0.214-0.853 0.3-1.452 0.258v0c-0.531-0.075-1.313-0.136-2.344-0.186-1.025-0.049-2.169-0.083-3.434-0.101v0c-0.051 1.164-0.165 2.517-0.341 4.059-0.17 1.542-0.366 3.094-0.59 4.654v0c-0.223 1.521-0.412 3.046-0.568 4.576-0.156 1.529-0.244 2.922-0.263 4.18v0c-0.018 1.165 0.077 2.188 0.283 3.07 0.2 0.888 0.627 1.654 1.283 2.296v0c0.459 0.466 0.684 0.966 0.677 1.498v0c-0.011 0.732-0.437 1.391-1.278 1.978-0.841 0.586-1.927 0.87-3.259 0.85z" fill="black"></path><path d="M171.269 45.855v0c-2.176-1.29-3.502-2.917-3.979-4.879-0.477-1.962-0.053-4.06 1.27-6.293v0c1.202-2.027 2.739-3.607 4.612-4.741 1.866-1.138 3.842-1.754 5.926-1.849 2.09-0.092 4.034 0.395 5.831 1.461v0c1.718 1.019 2.839 2.253 3.365 3.702 0.531 1.453 0.381 2.881-0.45 4.284v0c-0.662 1.116-1.617 1.943-2.865 2.481-1.238 0.535-2.596 0.743-4.074 0.625-1.474-0.124-2.913-0.602-4.316-1.433v0c-1.712-1.015-2.883-2.232-3.512-3.65v0c-0.752 1.334-0.931 2.66-0.536 3.977 0.401 1.321 1.285 2.387 2.654 3.199v0c0.83 0.492 1.77 0.845 2.82 1.057 1.053 0.222 2.047 0.262 2.982 0.12v0c0.599-0.109 1.07-0.062 1.414 0.142v0c0.286 0.17 0.47 0.402 0.55 0.698 0.071 0.298 0.022 0.59-0.148 0.875v0c-0.373 0.63-1.405 1.136-3.095 1.52v0c-3.005 0.695-5.821 0.263-8.449-1.296zM177.887 36.163v0c1.025 0.608 2.008 0.901 2.95 0.879 0.942-0.022 1.608-0.362 1.998-1.021v0c0.323-0.544 0.343-1.101 0.062-1.67-0.278-0.575-0.818-1.1-1.619-1.576v0c-1.054-0.625-2.142-0.891-3.265-0.798-1.114 0.09-2.14 0.534-3.077 1.333v0c0.248 0.495 0.644 1.001 1.189 1.518 0.545 0.517 1.132 0.962 1.762 1.335z" fill="black"></path><path d="M206.217 83.519v0c-0.852-1.806-0.974-3.523-0.365-5.149 0.615-1.63 1.973-2.94 4.074-3.932v0c1.505-0.71 3.139-1.124 4.901-1.242 1.765-0.112 3.511 0.102 5.238 0.642 1.724 0.548 3.316 1.435 4.777 2.659 1.458 1.218 2.649 2.806 3.572 4.763v0c0.849 1.8 1.27 3.486 1.261 5.058-0.018 1.569-0.551 2.6-1.598 3.095v0c-0.271 0.128-0.64 0.265-1.108 0.412-0.462 0.144-0.85 0.235-1.163 0.273v0c-0.283 0.023-0.561-0.004-0.834-0.082-0.275-0.069-0.477-0.239-0.605-0.509v0c-0.057-0.12-0.118-0.367-0.184-0.741v0c-0.689 0.178-1.349 0.379-1.979 0.602-0.624 0.221-1.238 0.474-1.839 0.758v0c-1.144 0.54-2.076 1.193-2.796 1.96-0.729 0.764-0.957 1.707-0.686 2.829v0c0.068 0.299 0.08 0.559 0.036 0.778-0.041 0.225-0.254 0.429-0.639 0.611v0c-0.331 0.156-0.792 0.271-1.384 0.344-0.588 0.079-1.198-0.02-1.829-0.296-0.622-0.273-1.139-0.846-1.551-1.72v0c-0.554-1.174-0.551-2.276 0.009-3.305 0.563-1.038 1.639-1.933 3.228-2.682v0c-1.852-0.12-3.539-0.582-5.061-1.388-1.524-0.812-2.682-2.058-3.475-3.738zM211.586 82.753v0c0.565 1.198 1.442 2.08 2.629 2.646 1.184 0.56 2.469 0.826 3.854 0.798v0c0.879-0.01 1.788-0.126 2.728-0.349 0.94-0.223 1.846-0.503 2.717-0.841v0c-0.001-0.625-0.082-1.305-0.244-2.037-0.162-0.733-0.413-1.461-0.754-2.184v0c-0.864-1.83-2.118-3.086-3.765-3.766-1.643-0.675-3.275-0.63-4.894 0.134v0c-1.204 0.568-2.017 1.357-2.439 2.366-0.428 1.012-0.372 2.089 0.168 3.233z" fill="black"></path><path d="M14.084 168.395v0c-0.435-1.116-0.729-2.181-0.88-3.193-0.154-1.019-0.064-1.943 0.269-2.774v0c0.248-0.611 0.608-1.098 1.081-1.461 0.469-0.354 1.02-0.655 1.653-0.901v0c1.023-0.399 2.085-0.709 3.185-0.93v0c1.886-0.421 3.894-0.925 6.023-1.512 2.135-0.589 4.077-1.225 5.826-1.906v0c0.546-0.213 1.158-0.476 1.835-0.791 0.675-0.32 1.297-0.641 1.865-0.962v0c-0.175-0.175-0.339-0.347-0.49-0.516-0.152-0.169-0.257-0.329-0.315-0.478v0c-0.106-0.273-0.04-0.506 0.199-0.699 0.237-0.199 0.519-0.363 0.848-0.491v0c0.875-0.341 1.702-0.427 2.481-0.26 0.78 0.168 1.59 0.624 2.43 1.368v0c0.935 0.786 1.921 1.905 2.96 3.358 1.032 1.455 1.871 3.014 2.519 4.676v0c1.47 3.771 1.518 7.167 0.145 10.189-1.379 3.024-4.103 5.329-8.172 6.914v0c-2.326 0.907-4.66 1.406-7.004 1.498-2.341 0.098-4.576-0.238-6.705-1.009-2.123-0.773-4.025-1.996-5.706-3.67-1.673-1.67-3.021-3.82-4.047-6.45zM19.72 167.87v0c0.529 1.358 1.27 2.634 2.221 3.828 0.951 1.194 2.062 2.175 3.334 2.945 1.274 0.775 2.697 1.238 4.271 1.39 1.567 0.154 3.272-0.129 5.114-0.847v0c2.084-0.812 3.647-1.889 4.689-3.231 1.039-1.348 1.626-2.831 1.76-4.448 0.134-1.617-0.121-3.253-0.767-4.909v0c-0.353-0.906-0.781-1.775-1.284-2.608-0.495-0.829-0.917-1.472-1.266-1.928v0c-1.401 0.51-2.786 0.954-4.154 1.33-1.359 0.38-2.696 0.718-4.009 1.015v0c-1.366 0.325-2.687 0.676-3.963 1.052-1.282 0.378-2.524 0.802-3.727 1.27v0c-1.513 0.59-2.382 1.286-2.605 2.087-0.223 0.802-0.095 1.819 0.386 3.054z" fill="black"></path><path d="M58.814 225.692v0c-2.047-1.369-3.253-3.021-3.617-4.954-0.361-1.939 0.16-3.957 1.562-6.055v0c1.28-1.915 2.86-3.373 4.739-4.374 1.879-1.002 3.835-1.495 5.868-1.481 2.038 0.018 3.904 0.593 5.597 1.725v0c1.616 1.081 2.641 2.343 3.077 3.788 0.439 1.439 0.216 2.82-0.668 4.142v0c-0.699 1.046-1.668 1.799-2.906 2.261-1.24 0.452-2.575 0.581-4.005 0.384-1.425-0.192-2.799-0.731-4.121-1.615v0c-1.616-1.081-2.69-2.324-3.223-3.729v0c-0.807 1.254-1.05 2.533-0.729 3.837 0.316 1.3 1.121 2.383 2.416 3.249v0c0.78 0.522 1.674 0.915 2.682 1.181 1.008 0.265 1.973 0.355 2.896 0.268v0c0.591-0.069 1.047 0.003 1.368 0.218v0c0.271 0.181 0.433 0.418 0.486 0.709 0.062 0.29 0.003 0.571-0.178 0.842v0c-0.396 0.592-1.43 1.03-3.101 1.314v0c-2.955 0.514-5.669-0.055-8.143-1.71zM65.765 216.61v0c0.968 0.648 1.908 0.984 2.821 1.01 0.918 0.029 1.584-0.266 1.998-0.886v0c0.34-0.509 0.389-1.049 0.146-1.62-0.243-0.571-0.741-1.108-1.493-1.611v0c-0.996-0.666-2.038-0.982-3.125-0.949-1.089 0.024-2.114 0.4-3.073 1.128v0c0.217 0.49 0.575 1.002 1.075 1.536 0.509 0.532 1.059 0.997 1.651 1.392z" fill="black"></path><path d="M123.804 244.431v0c-0.393 0.006-0.79-0.055-1.191-0.182-0.408-0.12-0.745-0.422-1.012-0.904-0.267-0.482-0.407-1.226-0.422-2.231v0c-0.01-0.712 0.033-1.588 0.131-2.628 0.098-1.033 0.235-2.15 0.41-3.351v0c0.236-1.628 0.43-3.342 0.584-5.142 0.153-1.8 0.216-3.638 0.188-5.515v0c-0.022-1.518-0.115-2.834-0.278-3.951-0.163-1.116-0.362-1.979-0.597-2.587v0c-1.231 0.051-2.398 0.148-3.501 0.291-1.096 0.143-2.208 0.369-3.335 0.678v0c-0.292 0.038-0.545 0.081-0.757 0.131-0.206 0.056-0.405 0.086-0.598 0.089v0c-0.293 0.004-0.507-0.049-0.642-0.16-0.128-0.111-0.196-0.393-0.202-0.846v0c-0.008-0.552 0.063-1.129 0.214-1.731 0.158-0.601 0.393-1.114 0.707-1.538v0c0.319-0.464 0.697-0.802 1.133-1.016 0.43-0.219 0.903-0.363 1.422-0.43v0c0.811-0.112 1.844-0.217 3.101-0.315 1.263-0.098 2.647-0.192 4.15-0.281 1.503-0.089 2.984-0.144 4.442-0.165v0c2.363-0.035 4.057-0.043 5.082-0.025 1.019 0.018 1.705 0.058 2.059 0.119v0c0.46 0.053 0.778 0.185 0.955 0.396 0.183 0.21 0.278 0.542 0.284 0.994v0c0.013 0.872-0.364 1.75-1.13 2.633v0c-0.314 0.397-0.649 0.702-1.005 0.914-0.35 0.218-0.818 0.315-1.404 0.29v0c-0.52-0.059-1.283-0.094-2.288-0.106-0.999-0.019-2.114-0.019-3.345-0.001v0c-0.017 1.132-0.087 2.451-0.212 3.958-0.124 1.506-0.272 3.023-0.442 4.55v0c-0.171 1.494-0.312 2.984-0.424 4.47-0.105 1.493-0.148 2.855-0.129 4.086v0c0.017 1.132 0.134 2.125 0.353 2.981 0.226 0.855 0.666 1.588 1.321 2.198v0c0.459 0.446 0.693 0.929 0.7 1.447v0c0.01 0.712-0.383 1.364-1.18 1.955-0.803 0.598-1.851 0.906-3.142 0.925z" fill="black"></path><path d="M182.675 228.115v0c-2.114 1.263-4.123 1.645-6.026 1.146-1.907-0.505-3.507-1.84-4.801-4.006v0c-1.181-1.977-1.822-4.029-1.922-6.157-0.1-2.127 0.292-4.106 1.176-5.936 0.889-1.834 2.208-3.273 3.957-4.318v0c1.669-0.997 3.249-1.383 4.741-1.157 1.488 0.22 2.64 1.013 3.456 2.378v0c0.645 1.08 0.911 2.278 0.798 3.595-0.122 1.314-0.579 2.575-1.369 3.783-0.784 1.205-1.859 2.216-3.225 3.032v0c-1.669 0.997-3.252 1.435-4.751 1.314v0c0.788 1.266 1.839 2.034 3.155 2.303 1.31 0.272 2.634 0.009 3.971-0.791v0c0.806-0.481 1.544-1.12 2.216-1.917 0.672-0.797 1.166-1.631 1.483-2.502v0c0.191-0.564 0.452-0.944 0.783-1.143v0c0.28-0.167 0.563-0.212 0.85-0.135 0.289 0.068 0.517 0.242 0.684 0.522v0c0.365 0.611 0.318 1.733-0.142 3.365v0c-0.801 2.89-2.479 5.098-5.034 6.624zM177.448 217.943v0c1-0.597 1.707-1.303 2.121-2.116 0.419-0.817 0.438-1.545 0.055-2.185v0c-0.314-0.526-0.781-0.801-1.401-0.826-0.62-0.025-1.318 0.194-2.095 0.659v0c-1.029 0.614-1.761 1.42-2.197 2.417-0.445 0.995-0.544 2.081-0.297 3.26v0c0.535 0.014 1.151-0.091 1.848-0.313 0.699-0.232 1.354-0.53 1.966-0.896z" fill="black"></path><path d="M226.202 180.628v0c-0.821 1.762-2.029 2.921-3.625 3.478-1.605 0.56-3.433 0.361-5.485-0.595v0c-1.466-0.683-2.793-1.65-3.98-2.901-1.187-1.251-2.113-2.692-2.777-4.323-0.671-1.634-1.003-3.379-0.998-5.235 0.005-1.856 0.452-3.737 1.341-5.643v0c0.821-1.762 1.823-3.124 3.005-4.086 1.185-0.968 2.291-1.213 3.317-0.735v0c0.265 0.124 0.595 0.314 0.989 0.572 0.403 0.254 0.716 0.488 0.94 0.702v0c0.196 0.194 0.35 0.416 0.461 0.666 0.117 0.253 0.114 0.512-0.01 0.778v0c-0.053 0.115-0.201 0.314-0.444 0.597v0c0.562 0.401 1.125 0.77 1.688 1.106 0.557 0.333 1.128 0.636 1.714 0.909v0c1.116 0.52 2.188 0.814 3.214 0.88 1.02 0.064 1.866-0.357 2.538-1.263v0c0.181-0.231 0.367-0.402 0.557-0.511 0.197-0.107 0.485-0.071 0.866 0.106v0c0.326 0.152 0.698 0.424 1.117 0.818 0.425 0.396 0.731 0.913 0.918 1.551 0.181 0.635 0.074 1.378-0.323 2.229v0c-0.534 1.146-1.361 1.833-2.48 2.061-1.125 0.225-2.467-0.026-4.023-0.751v0c1.071 1.468 1.775 3.023 2.112 4.664 0.343 1.643 0.132 3.286-0.632 4.926zM222.28 177.083v0c0.545-1.171 0.663-2.375 0.351-3.615-0.32-1.236-0.922-2.364-1.804-3.386v0c-0.551-0.646-1.205-1.252-1.962-1.817-0.754-0.572-1.529-1.076-2.325-1.513v0c-0.466 0.385-0.922 0.867-1.367 1.445-0.452 0.575-0.842 1.216-1.171 1.922v0c-0.835 1.792-0.991 3.515-0.469 5.168 0.516 1.651 1.565 2.844 3.145 3.581v0c1.177 0.548 2.274 0.667 3.293 0.356 1.019-0.311 1.788-1.025 2.309-2.141z" fill="black"></path><path d="M4.857 127.714c0-6.804 5.516-12.32 12.32-12.321 6.804 0 12.32 5.516 12.321 12.321 0 6.804-5.516 12.32-12.321 12.32-6.804 0-12.32-5.516-12.32-12.32z" fill="black"></path><path d="M215.837 127.714c0-6.804 5.516-12.32 12.32-12.321 6.804 0 12.32 5.516 12.32 12.321 0 6.804-5.516 12.32-12.32 12.32-6.804 0-12.32-5.516-12.32-12.32z" fill="black"></path></g><g id="SvgjsG2024"></g></svg></g></svg></g><g></g></svg></g><defs><mask></mask></defs></svg><rect width="229.20295202411572" height="247.2" fill="black" stroke="none" visibility="hidden"></rect></g></mask><linearGradient x1="0" x2="1" y1="0.578" y2="0.595" id="1f605dff-abbe-4b68-ba39-4fb058949ef1"><stop stop-color="#dede50" offset="0"></stop><stop stop-color="#559c49" offset="1"></stop></linearGradient><rect width="229.20295202411572" height="247.2" fill="#000000" mask="url(#355d38c7-e829-4d42-bb9a-2e64b2fc5b34)" data-fill-palette-color="primary"></rect><mask id="9b125efd-73ee-4da8-867e-368221967033"><g id="SvgjsG2057"><svg viewBox="0 0 229.20295202411572 247.2" height="247.2" width="229.20295202411572"><g><svg viewBox="0 0 395.52 426.57628593593677" height="247.2" width="229.20295202411572"><g transform="matrix(1,0,0,1,0,312.03341625625274)"><svg viewBox="0 0 395.52 114.54286967968406" height="114.54286967968406" width="395.52"><g id="SvgjsG2056"><svg viewBox="0 0 395.52 114.54286967968406" height="114.54286967968406" width="395.52" id="SvgjsSvg2055"><g><svg viewBox="0 0 395.52 114.54286967968406" height="114.54286967968406" width="395.52"><g transform="matrix(1,0,0,1,0,0)"><svg width="395.52" viewBox="2.1499999999999995 -32.35 113.94 33" height="114.54286967968406" data-palette-color="url(#1f605dff-abbe-4b68-ba39-4fb058949ef1)"></svg></g></svg></g></svg></g></svg></g><g transform="matrix(1,0,0,1,75.54432,0)"><svg viewBox="0 0 244.43135999999998 244.43135999999998" height="244.43135999999998" width="244.43135999999998"><g><svg viewBox="0 0 244.43135999999998 244.43135999999998" height="244.43135999999998" width="244.43135999999998"><g transform="matrix(1,0,0,1,64.60265593644992,77.22109362866834)"><svg viewBox="0 0 115.22604812710014 89.98917274266329" height="89.98917274266329" width="115.22604812710014"><g><svg xmlns="http://www.w3.org/2000/svg" xmlns:xlink="http://www.w3.org/1999/xlink" version="1.1" x="0" y="0" viewBox="10.444203955093279 19.1 79.15579604490671 61.8190480334006" style="enable-background:new 0 0 100 100;" xml:space="preserve" height="89.98917274266329" width="115.22604812710014" class="icon-dxe-0" data-fill-palette-color="accent" id="SvgjsSvg2054"><g fill="white"><path d="M53.4 74.4C66.8 72.4 78.2 61.6 81.8 56.6 73 69.9 63.4 75.6 55.5 77.5 67 83.7 82.8 85.5 89.6 46.7 82.7 55 53.3 47 53.4 74.4" fill="white"></path><path d="M61 55C61 40.6 45.7 28.2 47 19.1 36.1 33.2 31.5 43.8 30.7 51.7 29.7 61.4 34.5 67.1 40.8 70.7 42.9 71.9 45.2 72.9 47.5 73.7 42.8 65.3 40 52.3 44.6 33.9 43 41 42.8 59.7 51.8 72.9 51.9 63.2 55.7 58.1 61 55" fill="white"></path><path d="M29.1 52.3C22 47.6 13.3 45 11.2 40.1 6.8 79.3 22.5 81.9 35.3 79.2 28.3 75.2 20.6 67 15.9 51.8 17.9 57.6 25.9 71.2 38.2 76.8 38.8 74.8 39.1 73 39.3 71.3 32.9 67.7 28.2 62 29.1 52.3" fill="white"></path></g></svg></g></svg></g><g id="SvgjsG2053"><path d="M34.465 94.723v0c-0.451 1.146-0.973 2.156-1.568 3.032-0.595 0.875-1.308 1.506-2.14 1.894v0c-0.614 0.288-1.221 0.403-1.82 0.346-0.606-0.06-1.231-0.216-1.876-0.469v0c-1.053-0.414-2.07-0.921-3.049-1.522v0c-1.714-0.989-3.582-2.006-5.603-3.051-2.021-1.045-3.927-1.92-5.717-2.625v0c-0.558-0.219-1.201-0.447-1.93-0.684-0.732-0.231-1.426-0.421-2.082-0.572v0c0.008 0.253 0.013 0.495 0.015 0.725-0.004 0.227-0.036 0.419-0.096 0.573v0c-0.11 0.279-0.322 0.41-0.638 0.394-0.309-0.014-0.634-0.088-0.975-0.223v0c-0.898-0.353-1.585-0.863-2.059-1.529-0.466-0.67-0.759-1.579-0.88-2.728v0c-0.155-1.241-0.115-2.771 0.12-4.588 0.236-1.817 0.688-3.578 1.359-5.281v0c1.52-3.865 3.852-6.457 6.995-7.774 3.143-1.317 6.803-1.155 10.978 0.487v0c2.379 0.936 4.485 2.183 6.319 3.741 1.831 1.564 3.279 3.375 4.344 5.432 1.063 2.063 1.644 4.313 1.745 6.749 0.097 2.427-0.384 4.985-1.442 7.673zM29.852 91.203v0c0.548-1.394 0.88-2.873 0.995-4.438 0.112-1.558-0.042-3.075-0.464-4.549-0.424-1.469-1.174-2.808-2.25-4.018-1.076-1.21-2.559-2.187-4.449-2.93v0c-2.131-0.838-4.058-1.113-5.78-0.826-1.723 0.288-3.196 0.996-4.42 2.125-1.227 1.12-2.176 2.531-2.846 4.234v0c-0.365 0.929-0.65 1.88-0.853 2.852-0.203 0.972-0.331 1.751-0.383 2.338v0c1.406 0.589 2.757 1.22 4.051 1.894 1.291 0.665 2.531 1.339 3.722 2.022v0c1.259 0.71 2.501 1.37 3.727 1.981 1.228 0.605 2.459 1.15 3.692 1.635v0c1.549 0.609 2.686 0.692 3.411 0.247 0.734-0.448 1.35-1.304 1.847-2.567z" fill="white"></path><path d="M71.078 47.726v0c-2.105 1.402-4.145 1.894-6.121 1.474-1.975-0.42-3.683-1.71-5.122-3.871v0c-1.306-1.961-2.065-4.031-2.277-6.21-0.217-2.175 0.083-4.222 0.899-6.142 0.822-1.923 2.103-3.465 3.843-4.623v0c1.662-1.107 3.26-1.584 4.794-1.431 1.54 0.15 2.762 0.904 3.666 2.262v0c0.72 1.08 1.052 2.299 0.996 3.655-0.054 1.348-0.454 2.662-1.2 3.944-0.75 1.276-1.804 2.365-3.161 3.269v0c-1.656 1.103-3.26 1.632-4.811 1.585v0c0.877 1.256 1.994 1.991 3.353 2.206 1.364 0.211 2.708-0.125 4.032-1.007v0c0.803-0.535 1.528-1.23 2.175-2.084 0.656-0.853 1.122-1.731 1.399-2.636v0c0.161-0.587 0.407-0.991 0.74-1.213v0c0.277-0.185 0.566-0.249 0.867-0.194 0.299 0.065 0.541 0.236 0.725 0.513v0c0.406 0.609 0.416 1.759 0.03 3.448v0c-0.675 3.009-2.284 5.361-4.827 7.055zM65.208 37.563v0c0.992-0.661 1.681-1.42 2.069-2.279 0.388-0.858 0.37-1.606-0.055-2.243v0c-0.351-0.526-0.843-0.786-1.478-0.779-0.639 0.002-1.346 0.261-2.122 0.778v0c-1.019 0.679-1.73 1.545-2.133 2.597-0.401 1.043-0.445 2.16-0.131 3.351v0c0.554-0.009 1.182-0.147 1.883-0.415 0.702-0.267 1.357-0.604 1.967-1.01z" fill="white"></path><path d="M123.504 32.491v0c-0.399-0.006-0.804-0.079-1.215-0.218-0.411-0.139-0.745-0.461-1.004-0.964-0.259-0.503-0.38-1.271-0.365-2.303v0c0.011-0.726 0.081-1.62 0.211-2.683 0.136-1.063 0.313-2.209 0.531-3.437v0c0.291-1.653 0.541-3.4 0.749-5.241 0.214-1.848 0.336-3.733 0.365-5.657v0c0.024-1.564-0.032-2.92-0.168-4.067-0.129-1.147-0.305-2.038-0.529-2.674v0c-1.265 0.014-2.464 0.079-3.598 0.195-1.134 0.116-2.282 0.315-3.445 0.597v0c-0.3 0.029-0.56 0.065-0.78 0.108-0.214 0.05-0.421 0.074-0.62 0.07v0c-0.3-0.005-0.515-0.068-0.647-0.189-0.131-0.115-0.194-0.406-0.186-0.872v0c0.009-0.566 0.101-1.154 0.276-1.763 0.176-0.616 0.433-1.139 0.773-1.566v0c0.34-0.461 0.734-0.794 1.183-1.001 0.456-0.213 0.947-0.348 1.475-0.407v0c0.834-0.087 1.9-0.161 3.198-0.221 1.299-0.067 2.721-0.119 4.267-0.155 1.545-0.043 3.067-0.053 4.564-0.031v0c2.423 0.037 4.156 0.08 5.201 0.128 1.051 0.049 1.759 0.106 2.125 0.172v0c0.465 0.074 0.786 0.222 0.961 0.444 0.183 0.216 0.271 0.557 0.265 1.023v0c-0.014 0.899-0.427 1.791-1.239 2.677v0c-0.339 0.394-0.693 0.695-1.062 0.903-0.369 0.214-0.853 0.3-1.452 0.258v0c-0.531-0.075-1.313-0.136-2.344-0.186-1.025-0.049-2.169-0.083-3.434-0.101v0c-0.051 1.164-0.165 2.517-0.341 4.059-0.17 1.542-0.366 3.094-0.59 4.654v0c-0.223 1.521-0.412 3.046-0.568 4.576-0.156 1.529-0.244 2.922-0.263 4.18v0c-0.018 1.165 0.077 2.188 0.283 3.07 0.2 0.888 0.627 1.654 1.283 2.296v0c0.459 0.466 0.684 0.966 0.677 1.498v0c-0.011 0.732-0.437 1.391-1.278 1.978-0.841 0.586-1.927 0.87-3.259 0.85z" fill="white"></path><path d="M171.269 45.855v0c-2.176-1.29-3.502-2.917-3.979-4.879-0.477-1.962-0.053-4.06 1.27-6.293v0c1.202-2.027 2.739-3.607 4.612-4.741 1.866-1.138 3.842-1.754 5.926-1.849 2.09-0.092 4.034 0.395 5.831 1.461v0c1.718 1.019 2.839 2.253 3.365 3.702 0.531 1.453 0.381 2.881-0.45 4.284v0c-0.662 1.116-1.617 1.943-2.865 2.481-1.238 0.535-2.596 0.743-4.074 0.625-1.474-0.124-2.913-0.602-4.316-1.433v0c-1.712-1.015-2.883-2.232-3.512-3.65v0c-0.752 1.334-0.931 2.66-0.536 3.977 0.401 1.321 1.285 2.387 2.654 3.199v0c0.83 0.492 1.77 0.845 2.82 1.057 1.053 0.222 2.047 0.262 2.982 0.12v0c0.599-0.109 1.07-0.062 1.414 0.142v0c0.286 0.17 0.47 0.402 0.55 0.698 0.071 0.298 0.022 0.59-0.148 0.875v0c-0.373 0.63-1.405 1.136-3.095 1.52v0c-3.005 0.695-5.821 0.263-8.449-1.296zM177.887 36.163v0c1.025 0.608 2.008 0.901 2.95 0.879 0.942-0.022 1.608-0.362 1.998-1.021v0c0.323-0.544 0.343-1.101 0.062-1.67-0.278-0.575-0.818-1.1-1.619-1.576v0c-1.054-0.625-2.142-0.891-3.265-0.798-1.114 0.09-2.14 0.534-3.077 1.333v0c0.248 0.495 0.644 1.001 1.189 1.518 0.545 0.517 1.132 0.962 1.762 1.335z" fill="white"></path><path d="M206.217 83.519v0c-0.852-1.806-0.974-3.523-0.365-5.149 0.615-1.63 1.973-2.94 4.074-3.932v0c1.505-0.71 3.139-1.124 4.901-1.242 1.765-0.112 3.511 0.102 5.238 0.642 1.724 0.548 3.316 1.435 4.777 2.659 1.458 1.218 2.649 2.806 3.572 4.763v0c0.849 1.8 1.27 3.486 1.261 5.058-0.018 1.569-0.551 2.6-1.598 3.095v0c-0.271 0.128-0.64 0.265-1.108 0.412-0.462 0.144-0.85 0.235-1.163 0.273v0c-0.283 0.023-0.561-0.004-0.834-0.082-0.275-0.069-0.477-0.239-0.605-0.509v0c-0.057-0.12-0.118-0.367-0.184-0.741v0c-0.689 0.178-1.349 0.379-1.979 0.602-0.624 0.221-1.238 0.474-1.839 0.758v0c-1.144 0.54-2.076 1.193-2.796 1.96-0.729 0.764-0.957 1.707-0.686 2.829v0c0.068 0.299 0.08 0.559 0.036 0.778-0.041 0.225-0.254 0.429-0.639 0.611v0c-0.331 0.156-0.792 0.271-1.384 0.344-0.588 0.079-1.198-0.02-1.829-0.296-0.622-0.273-1.139-0.846-1.551-1.72v0c-0.554-1.174-0.551-2.276 0.009-3.305 0.563-1.038 1.639-1.933 3.228-2.682v0c-1.852-0.12-3.539-0.582-5.061-1.388-1.524-0.812-2.682-2.058-3.475-3.738zM211.586 82.753v0c0.565 1.198 1.442 2.08 2.629 2.646 1.184 0.56 2.469 0.826 3.854 0.798v0c0.879-0.01 1.788-0.126 2.728-0.349 0.94-0.223 1.846-0.503 2.717-0.841v0c-0.001-0.625-0.082-1.305-0.244-2.037-0.162-0.733-0.413-1.461-0.754-2.184v0c-0.864-1.83-2.118-3.086-3.765-3.766-1.643-0.675-3.275-0.63-4.894 0.134v0c-1.204 0.568-2.017 1.357-2.439 2.366-0.428 1.012-0.372 2.089 0.168 3.233z" fill="white"></path><path d="M14.084 168.395v0c-0.435-1.116-0.729-2.181-0.88-3.193-0.154-1.019-0.064-1.943 0.269-2.774v0c0.248-0.611 0.608-1.098 1.081-1.461 0.469-0.354 1.02-0.655 1.653-0.901v0c1.023-0.399 2.085-0.709 3.185-0.93v0c1.886-0.421 3.894-0.925 6.023-1.512 2.135-0.589 4.077-1.225 5.826-1.906v0c0.546-0.213 1.158-0.476 1.835-0.791 0.675-0.32 1.297-0.641 1.865-0.962v0c-0.175-0.175-0.339-0.347-0.49-0.516-0.152-0.169-0.257-0.329-0.315-0.478v0c-0.106-0.273-0.04-0.506 0.199-0.699 0.237-0.199 0.519-0.363 0.848-0.491v0c0.875-0.341 1.702-0.427 2.481-0.26 0.78 0.168 1.59 0.624 2.43 1.368v0c0.935 0.786 1.921 1.905 2.96 3.358 1.032 1.455 1.871 3.014 2.519 4.676v0c1.47 3.771 1.518 7.167 0.145 10.189-1.379 3.024-4.103 5.329-8.172 6.914v0c-2.326 0.907-4.66 1.406-7.004 1.498-2.341 0.098-4.576-0.238-6.705-1.009-2.123-0.773-4.025-1.996-5.706-3.67-1.673-1.67-3.021-3.82-4.047-6.45zM19.72 167.87v0c0.529 1.358 1.27 2.634 2.221 3.828 0.951 1.194 2.062 2.175 3.334 2.945 1.274 0.775 2.697 1.238 4.271 1.39 1.567 0.154 3.272-0.129 5.114-0.847v0c2.084-0.812 3.647-1.889 4.689-3.231 1.039-1.348 1.626-2.831 1.76-4.448 0.134-1.617-0.121-3.253-0.767-4.909v0c-0.353-0.906-0.781-1.775-1.284-2.608-0.495-0.829-0.917-1.472-1.266-1.928v0c-1.401 0.51-2.786 0.954-4.154 1.33-1.359 0.38-2.696 0.718-4.009 1.015v0c-1.366 0.325-2.687 0.676-3.963 1.052-1.282 0.378-2.524 0.802-3.727 1.27v0c-1.513 0.59-2.382 1.286-2.605 2.087-0.223 0.802-0.095 1.819 0.386 3.054z" fill="white"></path><path d="M58.814 225.692v0c-2.047-1.369-3.253-3.021-3.617-4.954-0.361-1.939 0.16-3.957 1.562-6.055v0c1.28-1.915 2.86-3.373 4.739-4.374 1.879-1.002 3.835-1.495 5.868-1.481 2.038 0.018 3.904 0.593 5.597 1.725v0c1.616 1.081 2.641 2.343 3.077 3.788 0.439 1.439 0.216 2.82-0.668 4.142v0c-0.699 1.046-1.668 1.799-2.906 2.261-1.24 0.452-2.575 0.581-4.005 0.384-1.425-0.192-2.799-0.731-4.121-1.615v0c-1.616-1.081-2.69-2.324-3.223-3.729v0c-0.807 1.254-1.05 2.533-0.729 3.837 0.316 1.3 1.121 2.383 2.416 3.249v0c0.78 0.522 1.674 0.915 2.682 1.181 1.008 0.265 1.973 0.355 2.896 0.268v0c0.591-0.069 1.047 0.003 1.368 0.218v0c0.271 0.181 0.433 0.418 0.486 0.709 0.062 0.29 0.003 0.571-0.178 0.842v0c-0.396 0.592-1.43 1.03-3.101 1.314v0c-2.955 0.514-5.669-0.055-8.143-1.71zM65.765 216.61v0c0.968 0.648 1.908 0.984 2.821 1.01 0.918 0.029 1.584-0.266 1.998-0.886v0c0.34-0.509 0.389-1.049 0.146-1.62-0.243-0.571-0.741-1.108-1.493-1.611v0c-0.996-0.666-2.038-0.982-3.125-0.949-1.089 0.024-2.114 0.4-3.073 1.128v0c0.217 0.49 0.575 1.002 1.075 1.536 0.509 0.532 1.059 0.997 1.651 1.392z" fill="white"></path><path d="M123.804 244.431v0c-0.393 0.006-0.79-0.055-1.191-0.182-0.408-0.12-0.745-0.422-1.012-0.904-0.267-0.482-0.407-1.226-0.422-2.231v0c-0.01-0.712 0.033-1.588 0.131-2.628 0.098-1.033 0.235-2.15 0.41-3.351v0c0.236-1.628 0.43-3.342 0.584-5.142 0.153-1.8 0.216-3.638 0.188-5.515v0c-0.022-1.518-0.115-2.834-0.278-3.951-0.163-1.116-0.362-1.979-0.597-2.587v0c-1.231 0.051-2.398 0.148-3.501 0.291-1.096 0.143-2.208 0.369-3.335 0.678v0c-0.292 0.038-0.545 0.081-0.757 0.131-0.206 0.056-0.405 0.086-0.598 0.089v0c-0.293 0.004-0.507-0.049-0.642-0.16-0.128-0.111-0.196-0.393-0.202-0.846v0c-0.008-0.552 0.063-1.129 0.214-1.731 0.158-0.601 0.393-1.114 0.707-1.538v0c0.319-0.464 0.697-0.802 1.133-1.016 0.43-0.219 0.903-0.363 1.422-0.43v0c0.811-0.112 1.844-0.217 3.101-0.315 1.263-0.098 2.647-0.192 4.15-0.281 1.503-0.089 2.984-0.144 4.442-0.165v0c2.363-0.035 4.057-0.043 5.082-0.025 1.019 0.018 1.705 0.058 2.059 0.119v0c0.46 0.053 0.778 0.185 0.955 0.396 0.183 0.21 0.278 0.542 0.284 0.994v0c0.013 0.872-0.364 1.75-1.13 2.633v0c-0.314 0.397-0.649 0.702-1.005 0.914-0.35 0.218-0.818 0.315-1.404 0.29v0c-0.52-0.059-1.283-0.094-2.288-0.106-0.999-0.019-2.114-0.019-3.345-0.001v0c-0.017 1.132-0.087 2.451-0.212 3.958-0.124 1.506-0.272 3.023-0.442 4.55v0c-0.171 1.494-0.312 2.984-0.424 4.47-0.105 1.493-0.148 2.855-0.129 4.086v0c0.017 1.132 0.134 2.125 0.353 2.981 0.226 0.855 0.666 1.588 1.321 2.198v0c0.459 0.446 0.693 0.929 0.7 1.447v0c0.01 0.712-0.383 1.364-1.18 1.955-0.803 0.598-1.851 0.906-3.142 0.925z" fill="white"></path><path d="M182.675 228.115v0c-2.114 1.263-4.123 1.645-6.026 1.146-1.907-0.505-3.507-1.84-4.801-4.006v0c-1.181-1.977-1.822-4.029-1.922-6.157-0.1-2.127 0.292-4.106 1.176-5.936 0.889-1.834 2.208-3.273 3.957-4.318v0c1.669-0.997 3.249-1.383 4.741-1.157 1.488 0.22 2.64 1.013 3.456 2.378v0c0.645 1.08 0.911 2.278 0.798 3.595-0.122 1.314-0.579 2.575-1.369 3.783-0.784 1.205-1.859 2.216-3.225 3.032v0c-1.669 0.997-3.252 1.435-4.751 1.314v0c0.788 1.266 1.839 2.034 3.155 2.303 1.31 0.272 2.634 0.009 3.971-0.791v0c0.806-0.481 1.544-1.12 2.216-1.917 0.672-0.797 1.166-1.631 1.483-2.502v0c0.191-0.564 0.452-0.944 0.783-1.143v0c0.28-0.167 0.563-0.212 0.85-0.135 0.289 0.068 0.517 0.242 0.684 0.522v0c0.365 0.611 0.318 1.733-0.142 3.365v0c-0.801 2.89-2.479 5.098-5.034 6.624zM177.448 217.943v0c1-0.597 1.707-1.303 2.121-2.116 0.419-0.817 0.438-1.545 0.055-2.185v0c-0.314-0.526-0.781-0.801-1.401-0.826-0.62-0.025-1.318 0.194-2.095 0.659v0c-1.029 0.614-1.761 1.42-2.197 2.417-0.445 0.995-0.544 2.081-0.297 3.26v0c0.535 0.014 1.151-0.091 1.848-0.313 0.699-0.232 1.354-0.53 1.966-0.896z" fill="white"></path><path d="M226.202 180.628v0c-0.821 1.762-2.029 2.921-3.625 3.478-1.605 0.56-3.433 0.361-5.485-0.595v0c-1.466-0.683-2.793-1.65-3.98-2.901-1.187-1.251-2.113-2.692-2.777-4.323-0.671-1.634-1.003-3.379-0.998-5.235 0.005-1.856 0.452-3.737 1.341-5.643v0c0.821-1.762 1.823-3.124 3.005-4.086 1.185-0.968 2.291-1.213 3.317-0.735v0c0.265 0.124 0.595 0.314 0.989 0.572 0.403 0.254 0.716 0.488 0.94 0.702v0c0.196 0.194 0.35 0.416 0.461 0.666 0.117 0.253 0.114 0.512-0.01 0.778v0c-0.053 0.115-0.201 0.314-0.444 0.597v0c0.562 0.401 1.125 0.77 1.688 1.106 0.557 0.333 1.128 0.636 1.714 0.909v0c1.116 0.52 2.188 0.814 3.214 0.88 1.02 0.064 1.866-0.357 2.538-1.263v0c0.181-0.231 0.367-0.402 0.557-0.511 0.197-0.107 0.485-0.071 0.866 0.106v0c0.326 0.152 0.698 0.424 1.117 0.818 0.425 0.396 0.731 0.913 0.918 1.551 0.181 0.635 0.074 1.378-0.323 2.229v0c-0.534 1.146-1.361 1.833-2.48 2.061-1.125 0.225-2.467-0.026-4.023-0.751v0c1.071 1.468 1.775 3.023 2.112 4.664 0.343 1.643 0.132 3.286-0.632 4.926zM222.28 177.083v0c0.545-1.171 0.663-2.375 0.351-3.615-0.32-1.236-0.922-2.364-1.804-3.386v0c-0.551-0.646-1.205-1.252-1.962-1.817-0.754-0.572-1.529-1.076-2.325-1.513v0c-0.466 0.385-0.922 0.867-1.367 1.445-0.452 0.575-0.842 1.216-1.171 1.922v0c-0.835 1.792-0.991 3.515-0.469 5.168 0.516 1.651 1.565 2.844 3.145 3.581v0c1.177 0.548 2.274 0.667 3.293 0.356 1.019-0.311 1.788-1.025 2.309-2.141z" fill="white"></path><path d="M4.857 127.714c0-6.804 5.516-12.32 12.32-12.321 6.804 0 12.32 5.516 12.321 12.321 0 6.804-5.516 12.32-12.321 12.32-6.804 0-12.32-5.516-12.32-12.32z" fill="white"></path><path d="M215.837 127.714c0-6.804 5.516-12.32 12.32-12.321 6.804 0 12.32 5.516 12.32 12.321 0 6.804-5.516 12.32-12.32 12.32-6.804 0-12.32-5.516-12.32-12.32z" fill="white"></path></g><g id="SvgjsG2052"></g></svg></g></svg></g><g></g></svg></g><defs><mask></mask></defs><mask><g id="SvgjsG2051"><svg viewBox="0 0 229.20295202411572 247.2" height="247.2" width="229.20295202411572"><g><svg viewBox="0 0 395.52 426.57628593593677" height="247.2" width="229.20295202411572"><g transform="matrix(1,0,0,1,0,312.03341625625274)"><svg viewBox="0 0 395.52 114.54286967968406" height="114.54286967968406" width="395.52"><g id="SvgjsG2050"><svg viewBox="0 0 395.52 114.54286967968406" height="114.54286967968406" width="395.52" id="SvgjsSvg2049"><g><svg viewBox="0 0 395.52 114.54286967968406" height="114.54286967968406" width="395.52"><g transform="matrix(1,0,0,1,0,0)"><svg width="395.52" viewBox="2.1499999999999995 -32.35 113.94 33" height="114.54286967968406" data-palette-color="url(#1f605dff-abbe-4b68-ba39-4fb058949ef1)"><path d="M10.2 0.65L10.2 0.65Q8.35 0.65 6.8 0.3 5.25-0.05 4.25-1L4.25-1Q3.5-1.7 3.25-2.58 3-3.45 3-4.5L3-4.5Q3-6.2 3.3-7.9L3.3-7.9Q3.75-10.85 4.1-14.25 4.45-17.65 4.45-20.55L4.45-20.55Q4.45-21.45 4.38-22.6 4.3-23.75 4.15-24.75L4.15-24.75Q3.8-24.6 3.48-24.48 3.15-24.35 2.9-24.35L2.9-24.35Q2.45-24.35 2.3-24.8 2.15-25.25 2.15-25.8L2.15-25.8Q2.15-27.25 2.83-28.28 3.5-29.3 5.05-30.1L5.05-30.1Q6.7-31 9.38-31.68 12.05-32.35 14.8-32.35L14.8-32.35Q21.05-32.35 24.63-28.68 28.2-25 28.2-18.25L28.2-18.25Q28.2-14.4 27.03-10.98 25.85-7.55 23.55-4.93 21.25-2.3 17.9-0.83 14.55 0.65 10.2 0.65ZM11.8-4.95L11.8-4.95Q14.05-4.95 16.3-5.65 18.55-6.35 20.38-7.75 22.2-9.15 23.3-11.33 24.4-13.5 24.4-16.55L24.4-16.55Q24.4-20 23.05-22.25 21.7-24.5 19.45-25.6 17.2-26.7 14.45-26.7L14.45-26.7Q12.95-26.7 11.48-26.45 10-26.2 9.15-25.95L9.15-25.95Q9.1-23.65 8.88-21.48 8.65-19.3 8.35-17.25L8.35-17.25Q8.05-15.1 7.88-13.05 7.7-11 7.7-9L7.7-9Q7.7-6.5 8.72-5.73 9.75-4.95 11.8-4.95ZM39.15 0.65L39.15 0.65Q35.35 0.65 33.22-1.53 31.1-3.7 31.1-7.6L31.1-7.6Q31.1-11.15 32.65-14.05 34.2-16.95 36.82-18.68 39.45-20.4 42.6-20.4L42.6-20.4Q45.6-20.4 47.4-18.93 49.2-17.45 49.2-15L49.2-15Q49.2-13.05 48-11.4 46.8-9.75 44.8-8.78 42.8-7.8 40.35-7.8L40.35-7.8Q37.35-7.8 35.45-9.15L35.45-9.15Q35.5-6.85 37.02-5.45 38.55-4.05 40.95-4.05L40.95-4.05Q42.4-4.05 43.92-4.58 45.45-5.1 46.55-6L46.55-6Q47.25-6.6 47.85-6.6L47.85-6.6Q48.35-6.6 48.67-6.28 49-5.95 49-5.45L49-5.45Q49-4.35 47.1-2.55L47.1-2.55Q43.75 0.65 39.15 0.65ZM39.9-11.1L39.9-11.1Q41.7-11.1 42.9-11.85 44.1-12.6 44.1-13.75L44.1-13.75Q44.1-14.7 43.3-15.23 42.5-15.75 41.1-15.75L41.1-15.75Q39.25-15.75 37.87-14.78 36.5-13.8 35.9-12.05L35.9-12.05Q36.6-11.6 37.7-11.35 38.8-11.1 39.9-11.1ZM62.7 0.5L62.7 0.5Q62.1 0.5 61.47 0.3 60.85 0.1 60.45-0.65 60.05-1.4 60.05-2.95L60.05-2.95Q60.05-4.05 60.22-5.65 60.4-7.25 60.7-9.1L60.7-9.1Q61.1-11.6 61.37-14.38 61.65-17.15 61.65-20.05L61.65-20.05Q61.65-22.4 61.42-24.13 61.2-25.85 60.85-26.8L60.85-26.8Q58.95-26.75 57.25-26.55 55.55-26.35 53.8-25.9L53.8-25.9Q53.35-25.85 53.02-25.78 52.7-25.7 52.4-25.7L52.4-25.7Q51.95-25.7 51.75-25.88 51.55-26.05 51.55-26.75L51.55-26.75Q51.55-27.6 51.8-28.53 52.05-29.45 52.55-30.1L52.55-30.1Q53.05-30.8 53.72-31.13 54.4-31.45 55.2-31.55L55.2-31.55Q56.45-31.7 58.4-31.83 60.35-31.95 62.67-32.05 65-32.15 67.25-32.15L67.25-32.15Q70.9-32.15 72.47-32.1 74.05-32.05 74.59-31.95L74.59-31.95Q75.3-31.85 75.57-31.53 75.84-31.2 75.84-30.5L75.84-30.5Q75.84-29.15 74.65-27.8L74.65-27.8Q74.15-27.2 73.59-26.88 73.05-26.55 72.15-26.6L72.15-26.6Q71.34-26.7 69.8-26.75 68.25-26.8 66.34-26.8L66.34-26.8Q66.3-25.05 66.07-22.73 65.84-20.4 65.55-18.05L65.55-18.05Q65.25-15.75 65.05-13.45 64.84-11.15 64.84-9.25L64.84-9.25Q64.84-7.5 65.17-6.18 65.5-4.85 66.5-3.9L66.5-3.9Q67.2-3.2 67.2-2.4L67.2-2.4Q67.2-1.3 65.95-0.4 64.7 0.5 62.7 0.5ZM80.09 0.65L80.09 0.65Q76.29 0.65 74.17-1.53 72.04-3.7 72.04-7.6L72.04-7.6Q72.04-11.15 73.59-14.05 75.14-16.95 77.77-18.68 80.39-20.4 83.54-20.4L83.54-20.4Q86.54-20.4 88.34-18.93 90.14-17.45 90.14-15L90.14-15Q90.14-13.05 88.94-11.4 87.74-9.75 85.74-8.78 83.74-7.8 81.29-7.8L81.29-7.8Q78.29-7.8 76.39-9.15L76.39-9.15Q76.44-6.85 77.97-5.45 79.49-4.05 81.89-4.05L81.89-4.05Q83.34-4.05 84.87-4.58 86.39-5.1 87.49-6L87.49-6Q88.19-6.6 88.79-6.6L88.79-6.6Q89.29-6.6 89.62-6.28 89.94-5.95 89.94-5.45L89.94-5.45Q89.94-4.35 88.04-2.55L88.04-2.55Q84.69 0.65 80.09 0.65ZM80.84-11.1L80.84-11.1Q82.64-11.1 83.84-11.85 85.04-12.6 85.04-13.75L85.04-13.75Q85.04-14.7 84.24-15.23 83.44-15.75 82.04-15.75L82.04-15.75Q80.19-15.75 78.82-14.78 77.44-13.8 76.84-12.05L76.84-12.05Q77.54-11.6 78.64-11.35 79.74-11.1 80.84-11.1ZM100.19 0.65L100.19 0.65Q97.19 0.65 95.37-1.23 93.54-3.1 93.54-6.6L93.54-6.6Q93.54-9.1 94.52-11.58 95.49-14.05 97.34-16.05 99.19-18.05 101.79-19.25 104.39-20.45 107.64-20.45L107.64-20.45Q110.64-20.45 112.77-19.43 114.89-18.4 114.89-16.65L114.89-16.65Q114.89-16.2 114.79-15.48 114.69-14.75 114.54-14.3L114.54-14.3Q114.39-13.9 114.12-13.58 113.84-13.25 113.39-13.25L113.39-13.25Q113.19-13.25 112.64-13.4L112.64-13.4Q112.44-12.35 112.34-11.35 112.24-10.35 112.24-9.35L112.24-9.35Q112.24-7.45 112.82-5.98 113.39-4.5 115.09-4.15L115.09-4.15Q115.54-4.05 115.82-3.85 116.09-3.65 116.09-3L116.09-3Q116.09-2.45 115.82-1.6 115.54-0.75 114.77-0.08 113.99 0.6 112.54 0.6L112.54 0.6Q110.59 0.6 109.54-0.83 108.49-2.25 108.49-4.9L108.49-4.9Q107.14-2.45 105.07-0.9 102.99 0.65 100.19 0.65ZM101.79-4.55L101.79-4.55Q103.79-4.55 105.32-5.8 106.84-7.05 107.69-8.95L107.69-8.95Q108.24-10.15 108.54-11.58 108.84-13 108.94-14.4L108.94-14.4Q108.09-14.8 106.99-15.05 105.89-15.3 104.69-15.3L104.69-15.3Q101.64-15.3 99.67-13.5 97.69-11.7 97.69-9L97.69-9Q97.69-7 98.79-5.78 99.89-4.55 101.79-4.55Z" opacity="1" transform="matrix(1,0,0,1,0,0)" fill="black" class="wordmark-text-0" id="SvgjsPath2048"></path></svg></g></svg></g></svg></g></svg></g><g transform="matrix(1,0,0,1,75.54432,0)"><svg viewBox="0 0 244.43135999999998 244.43135999999998" height="244.43135999999998" width="244.43135999999998"><g><svg viewBox="0 0 244.43135999999998 244.43135999999998" height="244.43135999999998" width="244.43135999999998"><g transform="matrix(1,0,0,1,64.60265593644992,77.22109362866834)"><svg viewBox="0 0 115.22604812710014 89.98917274266329" height="89.98917274266329" width="115.22604812710014"><g><svg xmlns="http://www.w3.org/2000/svg" xmlns:xlink="http://www.w3.org/1999/xlink" version="1.1" x="0" y="0" viewBox="10.444203955093279 19.1 79.15579604490671 61.8190480334006" style="enable-background:new 0 0 100 100;" xml:space="preserve" height="89.98917274266329" width="115.22604812710014" class="icon-dxe-0" data-fill-palette-color="accent" id="SvgjsSvg2047"><g fill="black"><path d="M53.4 74.4C66.8 72.4 78.2 61.6 81.8 56.6 73 69.9 63.4 75.6 55.5 77.5 67 83.7 82.8 85.5 89.6 46.7 82.7 55 53.3 47 53.4 74.4" fill="black"></path><path d="M61 55C61 40.6 45.7 28.2 47 19.1 36.1 33.2 31.5 43.8 30.7 51.7 29.7 61.4 34.5 67.1 40.8 70.7 42.9 71.9 45.2 72.9 47.5 73.7 42.8 65.3 40 52.3 44.6 33.9 43 41 42.8 59.7 51.8 72.9 51.9 63.2 55.7 58.1 61 55" fill="black"></path><path d="M29.1 52.3C22 47.6 13.3 45 11.2 40.1 6.8 79.3 22.5 81.9 35.3 79.2 28.3 75.2 20.6 67 15.9 51.8 17.9 57.6 25.9 71.2 38.2 76.8 38.8 74.8 39.1 73 39.3 71.3 32.9 67.7 28.2 62 29.1 52.3" fill="black"></path></g></svg></g></svg></g><g id="SvgjsG2046"><path d="M34.465 94.723v0c-0.451 1.146-0.973 2.156-1.568 3.032-0.595 0.875-1.308 1.506-2.14 1.894v0c-0.614 0.288-1.221 0.403-1.82 0.346-0.606-0.06-1.231-0.216-1.876-0.469v0c-1.053-0.414-2.07-0.921-3.049-1.522v0c-1.714-0.989-3.582-2.006-5.603-3.051-2.021-1.045-3.927-1.92-5.717-2.625v0c-0.558-0.219-1.201-0.447-1.93-0.684-0.732-0.231-1.426-0.421-2.082-0.572v0c0.008 0.253 0.013 0.495 0.015 0.725-0.004 0.227-0.036 0.419-0.096 0.573v0c-0.11 0.279-0.322 0.41-0.638 0.394-0.309-0.014-0.634-0.088-0.975-0.223v0c-0.898-0.353-1.585-0.863-2.059-1.529-0.466-0.67-0.759-1.579-0.88-2.728v0c-0.155-1.241-0.115-2.771 0.12-4.588 0.236-1.817 0.688-3.578 1.359-5.281v0c1.52-3.865 3.852-6.457 6.995-7.774 3.143-1.317 6.803-1.155 10.978 0.487v0c2.379 0.936 4.485 2.183 6.319 3.741 1.831 1.564 3.279 3.375 4.344 5.432 1.063 2.063 1.644 4.313 1.745 6.749 0.097 2.427-0.384 4.985-1.442 7.673zM29.852 91.203v0c0.548-1.394 0.88-2.873 0.995-4.438 0.112-1.558-0.042-3.075-0.464-4.549-0.424-1.469-1.174-2.808-2.25-4.018-1.076-1.21-2.559-2.187-4.449-2.93v0c-2.131-0.838-4.058-1.113-5.78-0.826-1.723 0.288-3.196 0.996-4.42 2.125-1.227 1.12-2.176 2.531-2.846 4.234v0c-0.365 0.929-0.65 1.88-0.853 2.852-0.203 0.972-0.331 1.751-0.383 2.338v0c1.406 0.589 2.757 1.22 4.051 1.894 1.291 0.665 2.531 1.339 3.722 2.022v0c1.259 0.71 2.501 1.37 3.727 1.981 1.228 0.605 2.459 1.15 3.692 1.635v0c1.549 0.609 2.686 0.692 3.411 0.247 0.734-0.448 1.35-1.304 1.847-2.567z" fill="black"></path><path d="M71.078 47.726v0c-2.105 1.402-4.145 1.894-6.121 1.474-1.975-0.42-3.683-1.71-5.122-3.871v0c-1.306-1.961-2.065-4.031-2.277-6.21-0.217-2.175 0.083-4.222 0.899-6.142 0.822-1.923 2.103-3.465 3.843-4.623v0c1.662-1.107 3.26-1.584 4.794-1.431 1.54 0.15 2.762 0.904 3.666 2.262v0c0.72 1.08 1.052 2.299 0.996 3.655-0.054 1.348-0.454 2.662-1.2 3.944-0.75 1.276-1.804 2.365-3.161 3.269v0c-1.656 1.103-3.26 1.632-4.811 1.585v0c0.877 1.256 1.994 1.991 3.353 2.206 1.364 0.211 2.708-0.125 4.032-1.007v0c0.803-0.535 1.528-1.23 2.175-2.084 0.656-0.853 1.122-1.731 1.399-2.636v0c0.161-0.587 0.407-0.991 0.74-1.213v0c0.277-0.185 0.566-0.249 0.867-0.194 0.299 0.065 0.541 0.236 0.725 0.513v0c0.406 0.609 0.416 1.759 0.03 3.448v0c-0.675 3.009-2.284 5.361-4.827 7.055zM65.208 37.563v0c0.992-0.661 1.681-1.42 2.069-2.279 0.388-0.858 0.37-1.606-0.055-2.243v0c-0.351-0.526-0.843-0.786-1.478-0.779-0.639 0.002-1.346 0.261-2.122 0.778v0c-1.019 0.679-1.73 1.545-2.133 2.597-0.401 1.043-0.445 2.16-0.131 3.351v0c0.554-0.009 1.182-0.147 1.883-0.415 0.702-0.267 1.357-0.604 1.967-1.01z" fill="black"></path><path d="M123.504 32.491v0c-0.399-0.006-0.804-0.079-1.215-0.218-0.411-0.139-0.745-0.461-1.004-0.964-0.259-0.503-0.38-1.271-0.365-2.303v0c0.011-0.726 0.081-1.62 0.211-2.683 0.136-1.063 0.313-2.209 0.531-3.437v0c0.291-1.653 0.541-3.4 0.749-5.241 0.214-1.848 0.336-3.733 0.365-5.657v0c0.024-1.564-0.032-2.92-0.168-4.067-0.129-1.147-0.305-2.038-0.529-2.674v0c-1.265 0.014-2.464 0.079-3.598 0.195-1.134 0.116-2.282 0.315-3.445 0.597v0c-0.3 0.029-0.56 0.065-0.78 0.108-0.214 0.05-0.421 0.074-0.62 0.07v0c-0.3-0.005-0.515-0.068-0.647-0.189-0.131-0.115-0.194-0.406-0.186-0.872v0c0.009-0.566 0.101-1.154 0.276-1.763 0.176-0.616 0.433-1.139 0.773-1.566v0c0.34-0.461 0.734-0.794 1.183-1.001 0.456-0.213 0.947-0.348 1.475-0.407v0c0.834-0.087 1.9-0.161 3.198-0.221 1.299-0.067 2.721-0.119 4.267-0.155 1.545-0.043 3.067-0.053 4.564-0.031v0c2.423 0.037 4.156 0.08 5.201 0.128 1.051 0.049 1.759 0.106 2.125 0.172v0c0.465 0.074 0.786 0.222 0.961 0.444 0.183 0.216 0.271 0.557 0.265 1.023v0c-0.014 0.899-0.427 1.791-1.239 2.677v0c-0.339 0.394-0.693 0.695-1.062 0.903-0.369 0.214-0.853 0.3-1.452 0.258v0c-0.531-0.075-1.313-0.136-2.344-0.186-1.025-0.049-2.169-0.083-3.434-0.101v0c-0.051 1.164-0.165 2.517-0.341 4.059-0.17 1.542-0.366 3.094-0.59 4.654v0c-0.223 1.521-0.412 3.046-0.568 4.576-0.156 1.529-0.244 2.922-0.263 4.18v0c-0.018 1.165 0.077 2.188 0.283 3.07 0.2 0.888 0.627 1.654 1.283 2.296v0c0.459 0.466 0.684 0.966 0.677 1.498v0c-0.011 0.732-0.437 1.391-1.278 1.978-0.841 0.586-1.927 0.87-3.259 0.85z" fill="black"></path><path d="M171.269 45.855v0c-2.176-1.29-3.502-2.917-3.979-4.879-0.477-1.962-0.053-4.06 1.27-6.293v0c1.202-2.027 2.739-3.607 4.612-4.741 1.866-1.138 3.842-1.754 5.926-1.849 2.09-0.092 4.034 0.395 5.831 1.461v0c1.718 1.019 2.839 2.253 3.365 3.702 0.531 1.453 0.381 2.881-0.45 4.284v0c-0.662 1.116-1.617 1.943-2.865 2.481-1.238 0.535-2.596 0.743-4.074 0.625-1.474-0.124-2.913-0.602-4.316-1.433v0c-1.712-1.015-2.883-2.232-3.512-3.65v0c-0.752 1.334-0.931 2.66-0.536 3.977 0.401 1.321 1.285 2.387 2.654 3.199v0c0.83 0.492 1.77 0.845 2.82 1.057 1.053 0.222 2.047 0.262 2.982 0.12v0c0.599-0.109 1.07-0.062 1.414 0.142v0c0.286 0.17 0.47 0.402 0.55 0.698 0.071 0.298 0.022 0.59-0.148 0.875v0c-0.373 0.63-1.405 1.136-3.095 1.52v0c-3.005 0.695-5.821 0.263-8.449-1.296zM177.887 36.163v0c1.025 0.608 2.008 0.901 2.95 0.879 0.942-0.022 1.608-0.362 1.998-1.021v0c0.323-0.544 0.343-1.101 0.062-1.67-0.278-0.575-0.818-1.1-1.619-1.576v0c-1.054-0.625-2.142-0.891-3.265-0.798-1.114 0.09-2.14 0.534-3.077 1.333v0c0.248 0.495 0.644 1.001 1.189 1.518 0.545 0.517 1.132 0.962 1.762 1.335z" fill="black"></path><path d="M206.217 83.519v0c-0.852-1.806-0.974-3.523-0.365-5.149 0.615-1.63 1.973-2.94 4.074-3.932v0c1.505-0.71 3.139-1.124 4.901-1.242 1.765-0.112 3.511 0.102 5.238 0.642 1.724 0.548 3.316 1.435 4.777 2.659 1.458 1.218 2.649 2.806 3.572 4.763v0c0.849 1.8 1.27 3.486 1.261 5.058-0.018 1.569-0.551 2.6-1.598 3.095v0c-0.271 0.128-0.64 0.265-1.108 0.412-0.462 0.144-0.85 0.235-1.163 0.273v0c-0.283 0.023-0.561-0.004-0.834-0.082-0.275-0.069-0.477-0.239-0.605-0.509v0c-0.057-0.12-0.118-0.367-0.184-0.741v0c-0.689 0.178-1.349 0.379-1.979 0.602-0.624 0.221-1.238 0.474-1.839 0.758v0c-1.144 0.54-2.076 1.193-2.796 1.96-0.729 0.764-0.957 1.707-0.686 2.829v0c0.068 0.299 0.08 0.559 0.036 0.778-0.041 0.225-0.254 0.429-0.639 0.611v0c-0.331 0.156-0.792 0.271-1.384 0.344-0.588 0.079-1.198-0.02-1.829-0.296-0.622-0.273-1.139-0.846-1.551-1.72v0c-0.554-1.174-0.551-2.276 0.009-3.305 0.563-1.038 1.639-1.933 3.228-2.682v0c-1.852-0.12-3.539-0.582-5.061-1.388-1.524-0.812-2.682-2.058-3.475-3.738zM211.586 82.753v0c0.565 1.198 1.442 2.08 2.629 2.646 1.184 0.56 2.469 0.826 3.854 0.798v0c0.879-0.01 1.788-0.126 2.728-0.349 0.94-0.223 1.846-0.503 2.717-0.841v0c-0.001-0.625-0.082-1.305-0.244-2.037-0.162-0.733-0.413-1.461-0.754-2.184v0c-0.864-1.83-2.118-3.086-3.765-3.766-1.643-0.675-3.275-0.63-4.894 0.134v0c-1.204 0.568-2.017 1.357-2.439 2.366-0.428 1.012-0.372 2.089 0.168 3.233z" fill="black"></path><path d="M14.084 168.395v0c-0.435-1.116-0.729-2.181-0.88-3.193-0.154-1.019-0.064-1.943 0.269-2.774v0c0.248-0.611 0.608-1.098 1.081-1.461 0.469-0.354 1.02-0.655 1.653-0.901v0c1.023-0.399 2.085-0.709 3.185-0.93v0c1.886-0.421 3.894-0.925 6.023-1.512 2.135-0.589 4.077-1.225 5.826-1.906v0c0.546-0.213 1.158-0.476 1.835-0.791 0.675-0.32 1.297-0.641 1.865-0.962v0c-0.175-0.175-0.339-0.347-0.49-0.516-0.152-0.169-0.257-0.329-0.315-0.478v0c-0.106-0.273-0.04-0.506 0.199-0.699 0.237-0.199 0.519-0.363 0.848-0.491v0c0.875-0.341 1.702-0.427 2.481-0.26 0.78 0.168 1.59 0.624 2.43 1.368v0c0.935 0.786 1.921 1.905 2.96 3.358 1.032 1.455 1.871 3.014 2.519 4.676v0c1.47 3.771 1.518 7.167 0.145 10.189-1.379 3.024-4.103 5.329-8.172 6.914v0c-2.326 0.907-4.66 1.406-7.004 1.498-2.341 0.098-4.576-0.238-6.705-1.009-2.123-0.773-4.025-1.996-5.706-3.67-1.673-1.67-3.021-3.82-4.047-6.45zM19.72 167.87v0c0.529 1.358 1.27 2.634 2.221 3.828 0.951 1.194 2.062 2.175 3.334 2.945 1.274 0.775 2.697 1.238 4.271 1.39 1.567 0.154 3.272-0.129 5.114-0.847v0c2.084-0.812 3.647-1.889 4.689-3.231 1.039-1.348 1.626-2.831 1.76-4.448 0.134-1.617-0.121-3.253-0.767-4.909v0c-0.353-0.906-0.781-1.775-1.284-2.608-0.495-0.829-0.917-1.472-1.266-1.928v0c-1.401 0.51-2.786 0.954-4.154 1.33-1.359 0.38-2.696 0.718-4.009 1.015v0c-1.366 0.325-2.687 0.676-3.963 1.052-1.282 0.378-2.524 0.802-3.727 1.27v0c-1.513 0.59-2.382 1.286-2.605 2.087-0.223 0.802-0.095 1.819 0.386 3.054z" fill="black"></path><path d="M58.814 225.692v0c-2.047-1.369-3.253-3.021-3.617-4.954-0.361-1.939 0.16-3.957 1.562-6.055v0c1.28-1.915 2.86-3.373 4.739-4.374 1.879-1.002 3.835-1.495 5.868-1.481 2.038 0.018 3.904 0.593 5.597 1.725v0c1.616 1.081 2.641 2.343 3.077 3.788 0.439 1.439 0.216 2.82-0.668 4.142v0c-0.699 1.046-1.668 1.799-2.906 2.261-1.24 0.452-2.575 0.581-4.005 0.384-1.425-0.192-2.799-0.731-4.121-1.615v0c-1.616-1.081-2.69-2.324-3.223-3.729v0c-0.807 1.254-1.05 2.533-0.729 3.837 0.316 1.3 1.121 2.383 2.416 3.249v0c0.78 0.522 1.674 0.915 2.682 1.181 1.008 0.265 1.973 0.355 2.896 0.268v0c0.591-0.069 1.047 0.003 1.368 0.218v0c0.271 0.181 0.433 0.418 0.486 0.709 0.062 0.29 0.003 0.571-0.178 0.842v0c-0.396 0.592-1.43 1.03-3.101 1.314v0c-2.955 0.514-5.669-0.055-8.143-1.71zM65.765 216.61v0c0.968 0.648 1.908 0.984 2.821 1.01 0.918 0.029 1.584-0.266 1.998-0.886v0c0.34-0.509 0.389-1.049 0.146-1.62-0.243-0.571-0.741-1.108-1.493-1.611v0c-0.996-0.666-2.038-0.982-3.125-0.949-1.089 0.024-2.114 0.4-3.073 1.128v0c0.217 0.49 0.575 1.002 1.075 1.536 0.509 0.532 1.059 0.997 1.651 1.392z" fill="black"></path><path d="M123.804 244.431v0c-0.393 0.006-0.79-0.055-1.191-0.182-0.408-0.12-0.745-0.422-1.012-0.904-0.267-0.482-0.407-1.226-0.422-2.231v0c-0.01-0.712 0.033-1.588 0.131-2.628 0.098-1.033 0.235-2.15 0.41-3.351v0c0.236-1.628 0.43-3.342 0.584-5.142 0.153-1.8 0.216-3.638 0.188-5.515v0c-0.022-1.518-0.115-2.834-0.278-3.951-0.163-1.116-0.362-1.979-0.597-2.587v0c-1.231 0.051-2.398 0.148-3.501 0.291-1.096 0.143-2.208 0.369-3.335 0.678v0c-0.292 0.038-0.545 0.081-0.757 0.131-0.206 0.056-0.405 0.086-0.598 0.089v0c-0.293 0.004-0.507-0.049-0.642-0.16-0.128-0.111-0.196-0.393-0.202-0.846v0c-0.008-0.552 0.063-1.129 0.214-1.731 0.158-0.601 0.393-1.114 0.707-1.538v0c0.319-0.464 0.697-0.802 1.133-1.016 0.43-0.219 0.903-0.363 1.422-0.43v0c0.811-0.112 1.844-0.217 3.101-0.315 1.263-0.098 2.647-0.192 4.15-0.281 1.503-0.089 2.984-0.144 4.442-0.165v0c2.363-0.035 4.057-0.043 5.082-0.025 1.019 0.018 1.705 0.058 2.059 0.119v0c0.46 0.053 0.778 0.185 0.955 0.396 0.183 0.21 0.278 0.542 0.284 0.994v0c0.013 0.872-0.364 1.75-1.13 2.633v0c-0.314 0.397-0.649 0.702-1.005 0.914-0.35 0.218-0.818 0.315-1.404 0.29v0c-0.52-0.059-1.283-0.094-2.288-0.106-0.999-0.019-2.114-0.019-3.345-0.001v0c-0.017 1.132-0.087 2.451-0.212 3.958-0.124 1.506-0.272 3.023-0.442 4.55v0c-0.171 1.494-0.312 2.984-0.424 4.47-0.105 1.493-0.148 2.855-0.129 4.086v0c0.017 1.132 0.134 2.125 0.353 2.981 0.226 0.855 0.666 1.588 1.321 2.198v0c0.459 0.446 0.693 0.929 0.7 1.447v0c0.01 0.712-0.383 1.364-1.18 1.955-0.803 0.598-1.851 0.906-3.142 0.925z" fill="black"></path><path d="M182.675 228.115v0c-2.114 1.263-4.123 1.645-6.026 1.146-1.907-0.505-3.507-1.84-4.801-4.006v0c-1.181-1.977-1.822-4.029-1.922-6.157-0.1-2.127 0.292-4.106 1.176-5.936 0.889-1.834 2.208-3.273 3.957-4.318v0c1.669-0.997 3.249-1.383 4.741-1.157 1.488 0.22 2.64 1.013 3.456 2.378v0c0.645 1.08 0.911 2.278 0.798 3.595-0.122 1.314-0.579 2.575-1.369 3.783-0.784 1.205-1.859 2.216-3.225 3.032v0c-1.669 0.997-3.252 1.435-4.751 1.314v0c0.788 1.266 1.839 2.034 3.155 2.303 1.31 0.272 2.634 0.009 3.971-0.791v0c0.806-0.481 1.544-1.12 2.216-1.917 0.672-0.797 1.166-1.631 1.483-2.502v0c0.191-0.564 0.452-0.944 0.783-1.143v0c0.28-0.167 0.563-0.212 0.85-0.135 0.289 0.068 0.517 0.242 0.684 0.522v0c0.365 0.611 0.318 1.733-0.142 3.365v0c-0.801 2.89-2.479 5.098-5.034 6.624zM177.448 217.943v0c1-0.597 1.707-1.303 2.121-2.116 0.419-0.817 0.438-1.545 0.055-2.185v0c-0.314-0.526-0.781-0.801-1.401-0.826-0.62-0.025-1.318 0.194-2.095 0.659v0c-1.029 0.614-1.761 1.42-2.197 2.417-0.445 0.995-0.544 2.081-0.297 3.26v0c0.535 0.014 1.151-0.091 1.848-0.313 0.699-0.232 1.354-0.53 1.966-0.896z" fill="black"></path><path d="M226.202 180.628v0c-0.821 1.762-2.029 2.921-3.625 3.478-1.605 0.56-3.433 0.361-5.485-0.595v0c-1.466-0.683-2.793-1.65-3.98-2.901-1.187-1.251-2.113-2.692-2.777-4.323-0.671-1.634-1.003-3.379-0.998-5.235 0.005-1.856 0.452-3.737 1.341-5.643v0c0.821-1.762 1.823-3.124 3.005-4.086 1.185-0.968 2.291-1.213 3.317-0.735v0c0.265 0.124 0.595 0.314 0.989 0.572 0.403 0.254 0.716 0.488 0.94 0.702v0c0.196 0.194 0.35 0.416 0.461 0.666 0.117 0.253 0.114 0.512-0.01 0.778v0c-0.053 0.115-0.201 0.314-0.444 0.597v0c0.562 0.401 1.125 0.77 1.688 1.106 0.557 0.333 1.128 0.636 1.714 0.909v0c1.116 0.52 2.188 0.814 3.214 0.88 1.02 0.064 1.866-0.357 2.538-1.263v0c0.181-0.231 0.367-0.402 0.557-0.511 0.197-0.107 0.485-0.071 0.866 0.106v0c0.326 0.152 0.698 0.424 1.117 0.818 0.425 0.396 0.731 0.913 0.918 1.551 0.181 0.635 0.074 1.378-0.323 2.229v0c-0.534 1.146-1.361 1.833-2.48 2.061-1.125 0.225-2.467-0.026-4.023-0.751v0c1.071 1.468 1.775 3.023 2.112 4.664 0.343 1.643 0.132 3.286-0.632 4.926zM222.28 177.083v0c0.545-1.171 0.663-2.375 0.351-3.615-0.32-1.236-0.922-2.364-1.804-3.386v0c-0.551-0.646-1.205-1.252-1.962-1.817-0.754-0.572-1.529-1.076-2.325-1.513v0c-0.466 0.385-0.922 0.867-1.367 1.445-0.452 0.575-0.842 1.216-1.171 1.922v0c-0.835 1.792-0.991 3.515-0.469 5.168 0.516 1.651 1.565 2.844 3.145 3.581v0c1.177 0.548 2.274 0.667 3.293 0.356 1.019-0.311 1.788-1.025 2.309-2.141z" fill="black"></path><path d="M4.857 127.714c0-6.804 5.516-12.32 12.32-12.321 6.804 0 12.32 5.516 12.321 12.321 0 6.804-5.516 12.32-12.321 12.32-6.804 0-12.32-5.516-12.32-12.32z" fill="black"></path><path d="M215.837 127.714c0-6.804 5.516-12.32 12.32-12.321 6.804 0 12.32 5.516 12.32 12.321 0 6.804-5.516 12.32-12.32 12.32-6.804 0-12.32-5.516-12.32-12.32z" fill="black"></path></g><g id="SvgjsG2045"></g></svg></g></svg></g><g></g></svg></g><defs><mask></mask></defs></svg><rect width="229.20295202411572" height="247.2" fill="black" stroke="none" visibility="hidden"></rect></g></mask></svg><rect width="229.20295202411572" height="247.2" fill="black" stroke="none" visibility="hidden"></rect></g></mask><linearGradient x1="0" x2="1" y1="0.578" y2="0.595" id="52c64a18-0ee5-4628-8cb0-1cfc502ddfa9"><stop stop-color="#dede50" offset="0"></stop><stop stop-color="#559c49" offset="1"></stop></linearGradient><rect width="229.20295202411572" height="247.2" fill="#000000" mask="url(#9b125efd-73ee-4da8-867e-368221967033)" data-fill-palette-color="accent"></rect></svg><rect width="229.20295202411572" height="247.2" fill="none" stroke="none" visibility="hidden"></rect></g></svg></g></svg>